<?xml version="1.0" encoding="UTF-8" standalone="no"?>
<svg
   xmlns:dc="http://purl.org/dc/elements/1.1/"
   xmlns:cc="http://creativecommons.org/ns#"
   xmlns:rdf="http://www.w3.org/1999/02/22-rdf-syntax-ns#"
   xmlns:svg="http://www.w3.org/2000/svg"
   xmlns="http://www.w3.org/2000/svg"
   xmlns:xlink="http://www.w3.org/1999/xlink"
   xmlns:sodipodi="http://sodipodi.sourceforge.net/DTD/sodipodi-0.dtd"
   xmlns:inkscape="http://www.inkscape.org/namespaces/inkscape"
   inkscape:version="1.0beta2 (2b71d25, 2019-12-03)"
   sodipodi:docname="undraw_Bus_stop_8ib0.svg"
   version="1.1"
   viewBox="0 0 858.85306 459.0639"
   height="459.0639"
   width="858.85306"
   data-name="Layer 1"
   id="e441608a-9fa4-4052-ba21-01b68a925416">
  <metadata
     id="metadata3844">
    <rdf:RDF>
      <cc:Work
         rdf:about="">
        <dc:format>image/svg+xml</dc:format>
        <dc:type
           rdf:resource="http://purl.org/dc/dcmitype/StillImage" />
      </cc:Work>
    </rdf:RDF>
  </metadata>
  <sodipodi:namedview
     inkscape:current-layer="e441608a-9fa4-4052-ba21-01b68a925416"
     inkscape:window-maximized="1"
     inkscape:window-y="23"
     inkscape:window-x="0"
     inkscape:cy="246.81945"
     inkscape:cx="588.86695"
     inkscape:zoom="1.0692986"
     showgrid="false"
     id="namedview3842"
     inkscape:window-height="855"
     inkscape:window-width="1440"
     inkscape:pageshadow="2"
     inkscape:pageopacity="0"
     guidetolerance="10"
     gridtolerance="10"
     objecttolerance="10"
     borderopacity="1"
     inkscape:document-rotation="0"
     bordercolor="#666666"
     pagecolor="#ffffff" />
  <defs
     id="defs3223">
    <linearGradient
       gradientUnits="userSpaceOnUse"
       y2="386.85189"
       x2="130.35306"
       y1="391.0639"
       x1="130.35306"
       id="a651e133-d6aa-48aa-8079-6c4a5ec96e1e">
      <stop
         id="stop3204"
         stop-opacity="0.25"
         stop-color="gray"
         offset="0" />
      <stop
         id="stop3206"
         stop-opacity="0.12"
         stop-color="gray"
         offset="0.53514" />
      <stop
         id="stop3208"
         stop-opacity="0.1"
         stop-color="gray"
         offset="1" />
    </linearGradient>
    <linearGradient
       xlink:href="#a651e133-d6aa-48aa-8079-6c4a5ec96e1e"
       y2="369.85189"
       x2="234.35306"
       y1="374.0639"
       x1="234.35306"
       id="a032404e-d89a-4ea1-8305-7771176aed47" />
    <linearGradient
       xlink:href="#a651e133-d6aa-48aa-8079-6c4a5ec96e1e"
       y2="386.85189"
       x2="279.35306"
       y1="391.0639"
       x1="279.35306"
       id="aeaa6584-1812-46c5-9b7b-bc13fe2ee991" />
    <linearGradient
       xlink:href="#a651e133-d6aa-48aa-8079-6c4a5ec96e1e"
       y2="434.85189"
       x2="309.35306"
       y1="439.0639"
       x1="309.35306"
       id="e08ee7f8-fcb1-4000-9982-156125487aa2" />
    <linearGradient
       xlink:href="#a651e133-d6aa-48aa-8079-6c4a5ec96e1e"
       y2="443.85189"
       x2="77.85306"
       y1="448.0639"
       x1="77.85306"
       id="a085d69d-bfe1-44e0-800d-f8cfb8aa4567" />
    <linearGradient
       xlink:href="#a651e133-d6aa-48aa-8079-6c4a5ec96e1e"
       y2="454.85189"
       x2="101.35306"
       y1="459.0639"
       x1="101.35306"
       id="e80a456d-cc57-40fb-9b48-77bc4382318c" />
    <linearGradient
       xlink:href="#a651e133-d6aa-48aa-8079-6c4a5ec96e1e"
       y2="444.85189"
       x2="292.85306"
       y1="449.0639"
       x1="292.85306"
       id="a5b8f766-2468-40b7-b379-d76e54680466" />
    <linearGradient
       xlink:href="#a651e133-d6aa-48aa-8079-6c4a5ec96e1e"
       y2="416.85189"
       x2="436.85306"
       y1="421.0639"
       x1="436.85306"
       id="a5f4d687-b38a-42cd-97eb-99e9c010f90d" />
    <linearGradient
       xlink:href="#a651e133-d6aa-48aa-8079-6c4a5ec96e1e"
       y2="393.85189"
       x2="508.35306"
       y1="398.0639"
       x1="508.35306"
       id="a3735857-2d3f-4d4d-93dd-f8d1d4e4b48d" />
    <linearGradient
       xlink:href="#a651e133-d6aa-48aa-8079-6c4a5ec96e1e"
       y2="434.85189"
       x2="629.35306"
       y1="439.0639"
       x1="629.35306"
       id="fc59ee25-cba3-4486-b10b-5ad5b0f11fd8" />
    <linearGradient
       xlink:href="#a651e133-d6aa-48aa-8079-6c4a5ec96e1e"
       y2="450.85189"
       x2="608.85306"
       y1="455.0639"
       x1="608.85306"
       id="fc5113f6-7e86-4537-8511-a82c4c48aa38" />
    <linearGradient
       xlink:href="#a651e133-d6aa-48aa-8079-6c4a5ec96e1e"
       gradientTransform="matrix(-1, 0, 0, 1, 443.33333, 0)"
       y2="441.03904"
       x2="-149.00221"
       y1="556.00633"
       x1="-149.00221"
       id="aaf19e38-98c8-4286-a550-90d1e6367227" />
    <linearGradient
       xlink:href="#a651e133-d6aa-48aa-8079-6c4a5ec96e1e"
       gradientTransform="matrix(-1, 0, 0, 1, 2570, 0)"
       y2="477.92111"
       x2="1835.07638"
       y1="477.92111"
       x1="1750.7185"
       id="a3489703-272a-4731-87cb-067060fb58d8" />
  </defs>
  <title
     id="title3225">Bus stop</title>
  <path
     id="path3227"
     fill="#e6e6e6"
     transform="translate(-170.57347 -220.46805)"
     d="M267.07941,365.59549c4.22719,5.63805,8.78754,12.09,13.28836,19.12161l.64261-32.43455.35461.22663a63.30592,63.30592,0,0,0-15.66-8.37092l.35457.197Z" />
  <path
     id="path3229"
     fill="#e6e6e6"
     transform="translate(-170.57347 -220.46805)"
     d="M265.34845,344.01366a33.348,33.348,0,0,0-16.56229-1.71591c-.26742.04773-.53034.10261-.7927.15832,1.30634,1.40143,8.91877,9.67814,18.34263,22.15171Z" />
  <path
     id="path3231"
     fill="#e6e6e6"
     transform="translate(-170.57347 -220.46805)"
     d="M299.26705,420.16849q1.03961,2.48211,1.97734,4.93042l11.89668-35.127.34217.32651q-2.10734-3.9635-4.46758-7.707l-9.58635,37.72009Z" />
  <path
     id="path3233"
     fill="#e6e6e6"
     transform="translate(-170.57347 -220.46805)"
     d="M292.32022,405.35531l6.217-36.82793.353.28252a99.51929,99.51929,0,0,0-17.16461-16.03867l-.65514,33.05257Q287.353,395.73845,292.32022,405.35531Z" />
  <path
     id="path3235"
     fill="#e6e6e6"
     transform="translate(-170.57347 -220.46805)"
     d="M229.14278,379.29594l-.14536-.44943a83.09771,83.09771,0,0,0,3.28345,16.42334l57.16592,5.89639c-2.98434-5.50325-6.065-10.66637-9.05573-15.37206Z" />
  <path
     id="path3237"
     fill="#e6e6e6"
     transform="translate(-170.57347 -220.46805)"
     d="M232.56666,396.16807l-.15085-.44926q.86749,2.82858,1.94486,5.72044l-.154-.44861,57.85716,5.14275q-1.04827-2.05081-2.12027-4.04714Z" />
  <path
     id="path3239"
     fill="#e6e6e6"
     transform="translate(-170.57347 -220.46805)"
     d="M298.85764,419.21069l9.50645-37.40574.3479.30668a118.84471,118.84471,0,0,0-9.48734-12.90885l-6.301,37.326Q296.19938,412.96023,298.85764,419.21069Z" />
  <path
     id="path3241"
     fill="#e6e6e6"
     transform="translate(-170.57347 -220.46805)"
     d="M301.27688,426.97745l-56.30259-5.42175a114.97106,114.97106,0,0,0,9.98041,11.71559l-.13963-.49854,51.46566,10.58778A142.92785,142.92785,0,0,0,301.27688,426.97745Z" />
  <path
     id="path3243"
     fill="#e6e6e6"
     transform="translate(-170.57347 -220.46805)"
     d="M247.52912,342.81192l.13259-.28425c-7.73981,1.75712-13.20451,7.023-16.21133,14.64515l34.44157,7.78225C255.69256,351.46212,247.6449,342.934,247.52912,342.81192Z" />
  <path
     id="path3245"
     fill="#e6e6e6"
     transform="translate(-170.57347 -220.46805)"
     d="M302.28744,427.88657a142.0171,142.0171,0,0,1,4.5011,14.78257L320.196,409.04251l.32748.32843a56.29957,56.29957,0,0,0-4.28044-13.5495q-1.18631-2.53938-2.4837-5.00217L301.72066,426.365C301.91066,426.87254,302.104,427.38129,302.28744,427.88657Z" />
  <path
     id="path3247"
     fill="#e6e6e6"
     transform="translate(-170.57347 -220.46805)"
     d="M279.79212,384.85661c-4.45458-6.94868-8.96338-13.323-13.14221-18.89472l-35.23179-7.96108-.11944-.44464c-2.19942,5.79213-3.00358,12.90771-2.33746,20.85511Z" />
  <path
     id="path3249"
     fill="#e6e6e6"
     transform="translate(-170.57347 -220.46805)"
     d="M244.29056,420.61914l56.62434,5.45264.01136-.03364a192.88888,192.88888,0,0,0-8.39814-18.99017l-57.99956-5.15546q1.4771,3.91137,3.33871,7.9065A69.1196,69.1196,0,0,0,244.29056,420.61914Z" />
  <path
     id="path3251"
     fill="#e6e6e6"
     transform="translate(-170.57347 -220.46805)"
     d="M381.139,431.60229l.1286.40072a63.30569,63.30569,0,0,0-6.72207-16.43539l.14737.37793-12.77459,17.02484c-.34025,7.03854-.943,14.91638-1.96148,23.20278Z" />
  <path
     id="path3253"
     fill="#e6e6e6"
     transform="translate(-170.57347 -220.46805)"
     d="M374.35041,415.24423A33.34852,33.34852,0,0,0,362.68877,403.359c-.23644-.13385-.474-.25925-.71157-.38367.1123,1.91256.69626,13.14254-.00141,28.76019Z" />
  <path
     id="path3255"
     fill="#e6e6e6"
     transform="translate(-170.57347 -220.46805)"
     d="M351.90148,495.5317q-.78249,2.57478-1.6218,5.05854l31.56725-19.46659.05526.46969q.90495-4.39671,1.47474-8.78534l-31.44169,22.9373Z" />
  <path
     id="path3257"
     fill="#e6e6e6"
     transform="translate(-170.57347 -220.46805)"
     d="M355.99914,479.692l28.27773-24.39919.09165.44276a99.51793,99.51793,0,0,0-2.9903-23.30068l-21.586,25.03889Q358.30726,469.117,355.99914,479.692Z" />
  <path
     id="path3259"
     fill="#e6e6e6"
     transform="translate(-170.57347 -220.46805)"
     d="M384.37547,456.25139l-28.66,24.7292q-1.57914,7.0428-3.51844,13.55228l31.17972-22.74615.07235.45811A118.84546,118.84546,0,0,0,384.37547,456.25139Z" />
  <path
     id="path3261"
     fill="#e6e6e6"
     transform="translate(-170.57347 -220.46805)"
     d="M329.0623,539.7603q.03774-.57873.07221-1.189a98.9019,98.9019,0,0,0,12.9738-19.89057L324.799,497.11042q-.34029-1.104-.71214-2.20252l18.42428,22.95952a142.91661,142.91661,0,0,0,6.59541-15.80963l-36.43925-36.60442c.11376-.28727.22907-.58181.34546-.88151l36.39267,36.55749.03024-.01864a192.91182,192.91182,0,0,0,5.64405-19.98253L318.94081,445.355q.11381-.49818.22451-1.00165l36.14009,35.77432q.50064-2.24811.94834-4.46939l-36.03308-36.69064q.09029-.52516.17587-1.05427l36.0614,36.71947c1.21154-6.142,2.1319-12.08348,2.82986-17.61528l-35.32625-37.69178.17475-.43887c-.83693,1.219-1.6502,2.49777-2.443,3.82225a72.82676,72.82676,0,0,0-1.01684-12.50132l-13.53584,33.94846a109.28625,109.28625,0,0,1,2.34595,14.21265c-.082.80916-.156,1.6229-.21484,2.445l.4448.4468c.02817.43621.05432.87153.07615,1.305l-.59175-.59443c-.02789.47633-.04893.95618-.06958,1.43618a102.91923,102.91923,0,0,0-2.64207-19.16372l-51.08907-10.51038c2.57347,2.64176,5.27061,5.20876,8.027,7.68467a62.45324,62.45324,0,0,0-16.506-2.82055l.39814.07782,7.54135,19.90382c5.76288,4.05535,12.09419,8.78172,18.54809,14.07785l-9.28405-30.61542q.51608.459,1.03445.91376l9.26,30.537q9.03948,7.48721,16.736,15.09778l-4.2555-28.7389q.44755.31212.89045.61861l4.30161,29.04976q5.10329,5.104,9.56335,10.22673l-2.06256-31.508q.439.27462.86214.5373l2.08435,31.84086-.1985-.08585q1.756,2.03923,3.40449,4.0778l.39874-32.39588q.46052.2699.85135.49626l-.40584,32.95649c.33762.424.67871.848,1.00938,1.27188a142.00868,142.00868,0,0,1,8.8499,12.66741l.19235-2.9476q.35544,1.31079.71153,2.577l-.10935,1.67609c.39631.65909.781,1.31761,1.15995,1.9758q.44348,1.50586.87787,2.92832-1.25906-2.33286-2.63023-4.61958l-51.836,5.79578c27.25525,14.337,61.07689,21.13357,63.23242,21.55742-.51129-2.26119-1.133-4.50251-1.84838-6.72285.18606-.19477.36992-.39189.55406-.58873.088.2651.179.53049.264.79533-.0962.10287-.19095.20853-.28748.31067q.16-.07539.335-.15864.747,2.34152,1.3392,4.66765c.15775-1.25979.36893-3.17321.55321-5.593,9.33527-4.67327,33.51215-18.33085,45.78724-39.74291l-32.078,17.5134A99.88255,99.88255,0,0,1,329.0623,539.7603Zm-10.62865-50.582.07935-1.21619.81364,1.01388-.07934,1.21622Z" />
  <path
     id="path3263"
     fill="#e6e6e6"
     transform="translate(-170.57347 -220.46805)"
     d="M361.39257,402.95323l.28349-.13433c-7.08185-3.58325-14.6494-3.013-21.8267.93968l21.56289,27.96115C362.16284,414.82232,361.40394,403.12112,361.39257,402.95323Z" />
  <path
     id="path3265"
     fill="#e6e6e6"
     transform="translate(-170.57347 -220.46805)"
     d="M349.305,503.40253a142.004,142.004,0,0,1-5.96181,14.25626L375.117,500.31136l.04273.46182a56.30064,56.30064,0,0,0,5.34535-13.1658q.70595-2.71245,1.27751-5.43674L349.839,501.86909C349.66159,502.38122,349.486,502.89636,349.305,503.40253Z" />
  <path
     id="path3267"
     fill="#e6e6e6"
     transform="translate(-170.57347 -220.46805)"
     d="M361.35389,432.97863l-22.05751-28.60289.19165-.41865c-5.38832,3.05823-10.54611,8.02564-15.102,14.57153l35.03854,37.38483C360.42559,447.72045,361.01866,439.93526,361.35389,432.97863Z" />
  <path
     id="path3269"
     fill="#e6e6e6"
     transform="translate(-170.57347 -220.46805)"
     d="M246.5435,438.58923a33.34815,33.34815,0,0,0-16.28157,3.48747c-.23963.12806-.47269.26151-.705.3956,1.67555.929,11.47356,6.44744,24.29144,15.3973Z" />
  <path
     id="path3271"
     fill="#e6e6e6"
     transform="translate(-170.57347 -220.46805)"
     d="M273.76378,473.67418l-50.74728,9.66065-.27719-.3825a83.097,83.097,0,0,0,8.19908,14.60419l56.18911-12.06215C282.58828,481.183,278.06253,477.225,273.76378,473.67418Z" />
  <path
     id="path3273"
     fill="#e6e6e6"
     transform="translate(-170.57347 -220.46805)"
     d="M291.15173,489.40935q-1.6309-1.62633-3.26744-3.19359l-56.39645,12.10668-.28231-.38065q1.69921,2.42191,3.61774,4.83917l-.28508-.37905Z" />
  <path
     id="path3275"
     fill="#e6e6e6"
     transform="translate(-170.57347 -220.46805)"
     d="M316.17921,520.4191a142.93284,142.93284,0,0,0-9.8228-14.03412l-55.22133,12.24671a114.9741,114.9741,0,0,0,13.113,8.05694l-.28691-.431Z" />
  <path
     id="path3277"
     fill="#e6e6e6"
     transform="translate(-170.57347 -220.46805)"
     d="M229.22537,442.95425l.03821-.31133c-6.81761,4.06343-10.38709,10.76062-10.89072,18.93885l35.16047-3.2446C239.66283,448.65755,229.37316,443.03455,229.22537,442.95425Z" />
  <path
     id="path3279"
     fill="#e6e6e6"
     transform="translate(-170.57347 -220.46805)"
     d="M254.56539,459.06039l-35.96726,3.3188-.251-.38595c-.30142,6.18835,1.13319,13.204,4.22325,20.55638l50.334-9.582C266.52,467.73612,260.26184,463.0676,254.56539,459.06039Z" />
  <path
     id="path3281"
     fill="#e6e6e6"
     transform="translate(-170.57347 -220.46805)"
     d="M305.73268,505.60005a192.89668,192.89668,0,0,0-13.85675-15.46438l-56.75284,13.02446q2.61369,3.26325,5.619,6.48734a69.12488,69.12488,0,0,0,9.4532,8.30486l55.53694-12.31676Z" />
  <path
     id="path3283"
     fill="#4285f4"
     transform="translate(-170.57347 -220.46805)"
     d="M267.07941,365.59549c4.22719,5.63805,8.78754,12.09,13.28836,19.12161l.64261-32.43455.35461.22663a63.30592,63.30592,0,0,0-15.66-8.37092l.35457.197Z" />
  <path
     id="path3285"
     fill="#4285f4"
     transform="translate(-170.57347 -220.46805)"
     d="M265.34845,344.01366a33.348,33.348,0,0,0-16.56229-1.71591c-.26742.04773-.53034.10261-.7927.15832,1.30634,1.40143,8.91877,9.67814,18.34263,22.15171Z" />
  <path
     id="path3287"
     fill="#4285f4"
     transform="translate(-170.57347 -220.46805)"
     d="M299.26705,420.16849q1.03961,2.48211,1.97734,4.93042l11.89668-35.127.34217.32651q-2.10734-3.9635-4.46758-7.707l-9.58635,37.72009Z" />
  <path
     id="path3289"
     fill="#4285f4"
     transform="translate(-170.57347 -220.46805)"
     d="M292.32022,405.35531l6.217-36.82793.353.28252a99.51929,99.51929,0,0,0-17.16461-16.03867l-.65514,33.05257Q287.353,395.73845,292.32022,405.35531Z" />
  <path
     id="path3291"
     fill="#4285f4"
     transform="translate(-170.57347 -220.46805)"
     d="M229.14278,379.29594l-.14536-.44943a83.09771,83.09771,0,0,0,3.28345,16.42334l57.16592,5.89639c-2.98434-5.50325-6.065-10.66637-9.05573-15.37206Z" />
  <path
     id="path3293"
     fill="#4285f4"
     transform="translate(-170.57347 -220.46805)"
     d="M232.56666,396.16807l-.15085-.44926q.86749,2.82858,1.94486,5.72044l-.154-.44861,57.85716,5.14275q-1.04827-2.05081-2.12027-4.04714Z" />
  <path
     id="path3295"
     fill="#4285f4"
     transform="translate(-170.57347 -220.46805)"
     d="M298.85764,419.21069l9.50645-37.40574.3479.30668a118.84471,118.84471,0,0,0-9.48734-12.90885l-6.301,37.326Q296.19938,412.96023,298.85764,419.21069Z" />
  <path
     id="path3297"
     fill="#4285f4"
     transform="translate(-170.57347 -220.46805)"
     d="M301.27688,426.97745l-56.30259-5.42175a114.97106,114.97106,0,0,0,9.98041,11.71559l-.13963-.49854,51.46566,10.58778A142.92785,142.92785,0,0,0,301.27688,426.97745Z" />
  <path
     id="path3299"
     fill="#4285f4"
     transform="translate(-170.57347 -220.46805)"
     d="M247.52912,342.81192l.13259-.28425c-7.73981,1.75712-13.20451,7.023-16.21133,14.64515l34.44157,7.78225C255.69256,351.46212,247.6449,342.934,247.52912,342.81192Z" />
  <path
     id="path3301"
     fill="#4285f4"
     transform="translate(-170.57347 -220.46805)"
     d="M302.28744,427.88657a142.0171,142.0171,0,0,1,4.5011,14.78257L320.196,409.04251l.32748.32843a56.29957,56.29957,0,0,0-4.28044-13.5495q-1.18631-2.53938-2.4837-5.00217L301.72066,426.365C301.91066,426.87254,302.104,427.38129,302.28744,427.88657Z" />
  <path
     id="path3303"
     fill="#4285f4"
     transform="translate(-170.57347 -220.46805)"
     d="M279.79212,384.85661c-4.45458-6.94868-8.96338-13.323-13.14221-18.89472l-35.23179-7.96108-.11944-.44464c-2.19942,5.79213-3.00358,12.90771-2.33746,20.85511Z" />
  <path
     id="path3305"
     fill="#4285f4"
     transform="translate(-170.57347 -220.46805)"
     d="M244.29056,420.61914l56.62434,5.45264.01136-.03364a192.88888,192.88888,0,0,0-8.39814-18.99017l-57.99956-5.15546q1.4771,3.91137,3.33871,7.9065A69.1196,69.1196,0,0,0,244.29056,420.61914Z" />
  <path
     id="path3307"
     fill="#4285f4"
     transform="translate(-170.57347 -220.46805)"
     d="M381.139,431.60229l.1286.40072a63.30569,63.30569,0,0,0-6.72207-16.43539l.14737.37793-12.77459,17.02484c-.34025,7.03854-.943,14.91638-1.96148,23.20278Z" />
  <path
     id="path3309"
     fill="#4285f4"
     transform="translate(-170.57347 -220.46805)"
     d="M374.35041,415.24423A33.34852,33.34852,0,0,0,362.68877,403.359c-.23644-.13385-.474-.25925-.71157-.38367.1123,1.91256.69626,13.14254-.00141,28.76019Z" />
  <path
     id="path3311"
     fill="#4285f4"
     transform="translate(-170.57347 -220.46805)"
     d="M351.90148,495.5317q-.78249,2.57478-1.6218,5.05854l31.56725-19.46659.05526.46969q.90495-4.39671,1.47474-8.78534l-31.44169,22.9373Z" />
  <path
     id="path3313"
     fill="#4285f4"
     transform="translate(-170.57347 -220.46805)"
     d="M355.99914,479.692l28.27773-24.39919.09165.44276a99.51793,99.51793,0,0,0-2.9903-23.30068l-21.586,25.03889Q358.30726,469.117,355.99914,479.692Z" />
  <path
     id="path3315"
     fill="#4285f4"
     transform="translate(-170.57347 -220.46805)"
     d="M384.37547,456.25139l-28.66,24.7292q-1.57914,7.0428-3.51844,13.55228l31.17972-22.74615.07235.45811A118.84546,118.84546,0,0,0,384.37547,456.25139Z" />
  <path
     id="path3317"
     fill="#4285f4"
     transform="translate(-170.57347 -220.46805)"
     d="M329.0623,539.7603q.03774-.57873.07221-1.189a98.9019,98.9019,0,0,0,12.9738-19.89057L324.799,497.11042q-.34029-1.104-.71214-2.20252l18.42428,22.95952a142.91661,142.91661,0,0,0,6.59541-15.80963l-36.43925-36.60442c.11376-.28727.22907-.58181.34546-.88151l36.39267,36.55749.03024-.01864a192.91182,192.91182,0,0,0,5.64405-19.98253L318.94081,445.355q.11381-.49818.22451-1.00165l36.14009,35.77432q.50064-2.24811.94834-4.46939l-36.03308-36.69064q.09029-.52516.17587-1.05427l36.0614,36.71947c1.21154-6.142,2.1319-12.08348,2.82986-17.61528l-35.32625-37.69178.17475-.43887c-.83693,1.219-1.6502,2.49777-2.443,3.82225a72.82676,72.82676,0,0,0-1.01684-12.50132l-13.53584,33.94846a109.28625,109.28625,0,0,1,2.34595,14.21265c-.082.80916-.156,1.6229-.21484,2.445l.4448.4468c.02817.43621.05432.87153.07615,1.305l-.59175-.59443c-.02789.47633-.04893.95618-.06958,1.43618a102.91923,102.91923,0,0,0-2.64207-19.16372l-51.08907-10.51038c2.57347,2.64176,5.27061,5.20876,8.027,7.68467a62.45324,62.45324,0,0,0-16.506-2.82055l.39814.07782,7.54135,19.90382c5.76288,4.05535,12.09419,8.78172,18.54809,14.07785l-9.28405-30.61542q.51608.459,1.03445.91376l9.26,30.537q9.03948,7.48721,16.736,15.09778l-4.2555-28.7389q.44755.31212.89045.61861l4.30161,29.04976q5.10329,5.104,9.56335,10.22673l-2.06256-31.508q.439.27462.86214.5373l2.08435,31.84086-.1985-.08585q1.756,2.03923,3.40449,4.0778l.39874-32.39588q.46052.2699.85135.49626l-.40584,32.95649c.33762.424.67871.848,1.00938,1.27188a142.00868,142.00868,0,0,1,8.8499,12.66741l.19235-2.9476q.35544,1.31079.71153,2.577l-.10935,1.67609c.39631.65909.781,1.31761,1.15995,1.9758q.44348,1.50586.87787,2.92832-1.25906-2.33286-2.63023-4.61958l-51.836,5.79578c27.25525,14.337,61.07689,21.13357,63.23242,21.55742-.51129-2.26119-1.133-4.50251-1.84838-6.72285.18606-.19477.36992-.39189.55406-.58873.088.2651.179.53049.264.79533-.0962.10287-.19095.20853-.28748.31067q.16-.07539.335-.15864.747,2.34152,1.3392,4.66765c.15775-1.25979.36893-3.17321.55321-5.593,9.33527-4.67327,33.51215-18.33085,45.78724-39.74291l-32.078,17.5134A99.88255,99.88255,0,0,1,329.0623,539.7603Zm-10.62865-50.582.07935-1.21619.81364,1.01388-.07934,1.21622Z" />
  <path
     id="path3319"
     fill="#4285f4"
     transform="translate(-170.57347 -220.46805)"
     d="M361.39257,402.95323l.28349-.13433c-7.08185-3.58325-14.6494-3.013-21.8267.93968l21.56289,27.96115C362.16284,414.82232,361.40394,403.12112,361.39257,402.95323Z" />
  <path
     id="path3321"
     fill="#4285f4"
     transform="translate(-170.57347 -220.46805)"
     d="M349.305,503.40253a142.004,142.004,0,0,1-5.96181,14.25626L375.117,500.31136l.04273.46182a56.30064,56.30064,0,0,0,5.34535-13.1658q.70595-2.71245,1.27751-5.43674L349.839,501.86909C349.66159,502.38122,349.486,502.89636,349.305,503.40253Z" />
  <path
     id="path3323"
     fill="#4285f4"
     transform="translate(-170.57347 -220.46805)"
     d="M361.35389,432.97863l-22.05751-28.60289.19165-.41865c-5.38832,3.05823-10.54611,8.02564-15.102,14.57153l35.03854,37.38483C360.42559,447.72045,361.01866,439.93526,361.35389,432.97863Z" />
  <path
     id="path3325"
     fill="#4285f4"
     transform="translate(-170.57347 -220.46805)"
     d="M246.5435,438.58923a33.34815,33.34815,0,0,0-16.28157,3.48747c-.23963.12806-.47269.26151-.705.3956,1.67555.929,11.47356,6.44744,24.29144,15.3973Z" />
  <path
     id="path3327"
     fill="#4285f4"
     transform="translate(-170.57347 -220.46805)"
     d="M273.76378,473.67418l-50.74728,9.66065-.27719-.3825a83.097,83.097,0,0,0,8.19908,14.60419l56.18911-12.06215C282.58828,481.183,278.06253,477.225,273.76378,473.67418Z" />
  <path
     id="path3329"
     fill="#4285f4"
     transform="translate(-170.57347 -220.46805)"
     d="M291.15173,489.40935q-1.6309-1.62633-3.26744-3.19359l-56.39645,12.10668-.28231-.38065q1.69921,2.42191,3.61774,4.83917l-.28508-.37905Z" />
  <path
     id="path3331"
     fill="#4285f4"
     transform="translate(-170.57347 -220.46805)"
     d="M316.17921,520.4191a142.93284,142.93284,0,0,0-9.8228-14.03412l-55.22133,12.24671a114.9741,114.9741,0,0,0,13.113,8.05694l-.28691-.431Z" />
  <path
     id="path3333"
     fill="#4285f4"
     transform="translate(-170.57347 -220.46805)"
     d="M229.22537,442.95425l.03821-.31133c-6.81761,4.06343-10.38709,10.76062-10.89072,18.93885l35.16047-3.2446C239.66283,448.65755,229.37316,443.03455,229.22537,442.95425Z" />
  <path
     id="path3335"
     fill="#4285f4"
     transform="translate(-170.57347 -220.46805)"
     d="M254.56539,459.06039l-35.96726,3.3188-.251-.38595c-.30142,6.18835,1.13319,13.204,4.22325,20.55638l50.334-9.582C266.52,467.73612,260.26184,463.0676,254.56539,459.06039Z" />
  <path
     id="path3337"
     fill="#4285f4"
     transform="translate(-170.57347 -220.46805)"
     d="M305.73268,505.60005a192.89668,192.89668,0,0,0-13.85675-15.46438l-56.75284,13.02446q2.61369,3.26325,5.619,6.48734a69.12488,69.12488,0,0,0,9.4532,8.30486l55.53694-12.31676Z" />
  <rect
     id="rect3341"
     fill="#3f3d56"
     height="29.97871"
     width="4.08801"
     y="258.04053"
     x="464.49026" />
  <rect
     id="rect3343"
     fill="#e6e6e6"
     height="6.81334"
     width="148.80339"
     y="253.40746"
     x="368.01334" />
  <rect
     id="rect3345"
     fill="#e6e6e6"
     height="6.81334"
     width="148.80339"
     y="274.93762"
     x="368.01334" />
  <rect
     id="rect3347"
     fill="#e6e6e6"
     height="4.08801"
     width="148.80339"
     y="262.40107"
     x="368.01334" />
  <rect
     id="rect3349"
     fill="#e6e6e6"
     height="4.08801"
     width="148.80339"
     y="268.66934"
     x="368.01334" />
  <rect
     id="rect3351"
     fill="#3f3d56"
     height="35.97445"
     width="4.63307"
     y="252.18106"
     x="367.60454" />
  <rect
     id="rect3353"
     fill="#3f3d56"
     height="35.97445"
     width="4.63307"
     y="252.04479"
     x="512.18366" />
  <rect
     id="rect3355"
     fill="#3f3d56"
     height="37.33712"
     width="4.63307"
     y="297.55791"
     x="354.93172" />
  <rect
     id="rect3357"
     fill="#3f3d56"
     height="19.89496"
     width="4.63307"
     y="296.19525"
     x="370.19361" />
  <rect
     id="rect3359"
     fill="#3f3d56"
     height="19.89496"
     width="4.63307"
     y="296.19525"
     x="511.09352" />
  <rect
     id="rect3361"
     fill="#3f3d56"
     height="37.33712"
     width="4.63307"
     y="297.55791"
     x="524.17514" />
  <rect
     id="rect3363"
     fill="#3f3d56"
     height="4.90561"
     width="173.87649"
     y="297.55791"
     x="354.93172" />
  <polygon
     id="polygon3365"
     fill="#e6e6e6"
     points="367.468 286.657 354.932 297.558 528.808 297.558 516.817 286.657 367.468 286.657" />
  <path
     id="path3367"
     opacity="0.1"
     fill="#4285f4"
     transform="translate(-170.57347 -220.46805)"
     d="M979.63223,235.29911l-.06482-.359-6.13769-3.25083h-.96317l-.36841-.70608H959.44905l-2.93327.70608H945.71269l-2.9267,3.41537-.02994.2094c-.18947,1.22157-4.42255,29.94571,6.746,39.085L954.159,276.563h3.01148l-.58868-1.17543,2.618,1.17543h8.47614l.15058-.22592,5.02985-1.88316.12964-.14957C973.4397,273.76584,984.12958,260.77738,979.63223,235.29911Z" />
  <rect
     id="rect3369"
     fill="#e6e6e6"
     height="12.96351"
     width="4.98597"
     y="43.3807"
     x="788.87558" />
  <rect
     id="rect3371"
     fill="#3f3d56"
     height="249.29826"
     width="8.97474"
     y="73.0472"
     x="786.6319" />
  <rect
     id="rect3373"
     fill="#3f3d56"
     height="8.47614"
     width="13.46211"
     y="68.80913"
     x="784.38821" />
  <polygon
     id="polygon3375"
     fill="#3f3d56"
     points="779.402 53.353 787.878 62.327 784.388 68.809 791.369 70.305 797.85 68.809 793.862 61.829 801.839 53.353 779.402 53.353" />
  <path
     id="path3377"
     fill="#3f3d56"
     transform="translate(-170.57347 -220.46805)"
     d="M943.494,235.42875,939.50519,231.44l2.99158-2.99158H980.3901l2.99158,3.49018-4.48737,3.49017S954.96168,234.43156,943.494,235.42875Z" />
  <path
     id="path3379"
     fill="#3f3d56"
     transform="translate(-170.57347 -220.46805)"
     d="M979.63223,235.29911l-.06482-.359-6.13769-3.25083-2.80218-1.48584-15.73068-1.01214-8.8202,2.07415-.364.42383-2.9267,3.41537-.02994.2094c-.18947,1.22157-4.42255,29.94571,6.746,39.085L954.159,276.563l3.919,1.81986-.90748-1.81986-1.4908-2.97663c-1.56055-9.08442-4.99095-32.95223-2.80205-37.9382l9.04449-2.9168,8.02745,2.98162c.55338,3.58491,4.13333,28.71915-2.139,37.679l-.13463.19443v2.8071l5.18043-1.93955.12964-.14957C973.4397,273.76584,984.12958,260.77738,979.63223,235.29911Zm-7.67834,37.89334-2.78221,1.047V274.05c6.88066-10.26609,2.38331-37.83351,2.18885-39.01019l-.06981-.42878-7.86787-2.92177-1.46085-.54349-1.68532.54349-8.43622,2.72231-.14461.25429c-3.20594,5.74884,2.29359,37.9133,2.52792,39.27945l.02.10968.5933,1.18666-4.46241-2.05921c-9.947-8.28168-6.53666-34.802-6.17269-37.42964l2.69249-3.14115,3.9189-.92239,4.21318-.99221,6.9355.44872,8.2468.53351.0199.01,7.99252,4.22809C982.18011,259.0273,973.09563,271.71659,971.95389,273.19245Z" />
  <ellipse
     id="ellipse3381"
     fill="#3f3d56"
     ry="6.98035"
     rx="13.46211"
     cy="7.98035"
     cx="791.36856" />
  <path
     id="path3383"
     fill="#3f3d56"
     transform="translate(-170.57347 -220.46805)"
     d="M954.96168,530.09929l-7.97754,25.42842s12.46491,6.98035,29.41719,0l-7.97754-25.42842Z" />
  <circle
     id="circle3385"
     fill="#4285f4"
     r="3.98877"
     cy="40.88772"
     cx="791.36856" />
  <path
     id="path3387"
     opacity="0.1"
     fill="#4285f4"
     transform="translate(-170.57347 -220.46805)"
     d="M341.63223,234.29911l-.06482-.359-6.13769-3.25083h-.96317l-.36841-.70608H321.44905l-2.93327.70608H307.71269l-2.9267,3.41537-.02994.2094c-.18947,1.22157-4.42255,29.94571,6.746,39.085L316.159,275.563h3.01148l-.58868-1.17543,2.618,1.17543h8.47614l.15058-.22592,5.02985-1.88316.12964-.14957C335.4397,272.76584,346.12958,259.77738,341.63223,234.29911Z" />
  <rect
     id="rect3389"
     fill="#e6e6e6"
     height="12.96351"
     width="4.98597"
     y="42.3807"
     x="150.87558" />
  <rect
     id="rect3391"
     fill="#3f3d56"
     height="249.29826"
     width="8.97474"
     y="72.0472"
     x="148.6319" />
  <rect
     id="rect3393"
     fill="#3f3d56"
     height="8.47614"
     width="13.46211"
     y="67.80913"
     x="146.38821" />
  <polygon
     id="polygon3395"
     fill="#3f3d56"
     points="141.402 52.353 149.878 61.327 146.388 67.809 153.369 69.305 159.85 67.809 155.862 60.829 163.839 52.353 141.402 52.353" />
  <path
     id="path3397"
     fill="#3f3d56"
     transform="translate(-170.57347 -220.46805)"
     d="M305.494,234.42875,301.50519,230.44l2.99158-2.99158H342.3901l2.99158,3.49018-4.48737,3.49017S316.96168,233.43156,305.494,234.42875Z" />
  <path
     id="path3399"
     fill="#3f3d56"
     transform="translate(-170.57347 -220.46805)"
     d="M341.63223,234.29911l-.06482-.359-6.13769-3.25083-2.80218-1.48584-15.73068-1.01214-8.8202,2.07415-.364.42383-2.9267,3.41537-.02994.2094c-.18947,1.22157-4.42255,29.94571,6.746,39.085L316.159,275.563l3.919,1.81986-.90748-1.81986-1.4908-2.97663c-1.56055-9.08442-4.99095-32.95223-2.802-37.9382l9.04449-2.9168,8.02745,2.98162c.55338,3.58491,4.13333,28.71915-2.139,37.679l-.13463.19443v2.8071l5.18043-1.93955.12964-.14957C335.4397,272.76584,346.12958,259.77738,341.63223,234.29911Zm-7.67834,37.89334-2.78221,1.047V273.05c6.88066-10.26609,2.38331-37.83351,2.18885-39.01019l-.06981-.42878-7.86787-2.92177-1.46085-.54349-1.68532.54349-8.43622,2.72231-.14461.25429c-3.20594,5.74884,2.29359,37.9133,2.52792,39.27945l.02.10968.5933,1.18666-4.46241-2.05921c-9.947-8.28168-6.53666-34.802-6.17269-37.42964l2.69249-3.14115,3.9189-.92239,4.21318-.99221,6.9355.44872,8.2468.53351.0199.01,7.99252,4.22809C344.18011,258.0273,335.09563,270.71659,333.95389,272.19245Z" />
  <ellipse
     id="ellipse3401"
     fill="#3f3d56"
     ry="6.98035"
     rx="13.46211"
     cy="6.98035"
     cx="153.36856" />
  <path
     id="path3403"
     fill="#3f3d56"
     transform="translate(-170.57347 -220.46805)"
     d="M316.96168,529.09929l-7.97754,25.42842s12.46491,6.98035,29.41719,0l-7.97754-25.42842Z" />
  <circle
     id="circle3405"
     fill="#4285f4"
     r="3.98877"
     cy="39.88772"
     cx="153.36856" />
  <rect
     id="rect3407"
     fill="#b0bec5"
     height="3.64952"
     width="858.85306"
     y="334.23026" />
  <rect
     id="rect3409"
     fill="#3f3d56"
     height="12.36516"
     width="441.91997"
     y="96.32215"
     x="233.9299" />
  <rect
     id="rect3411"
     fill="#3f3d56"
     height="224.72329"
     width="11.28993"
     y="108.6873"
     x="244.68221" />
  <rect
     id="rect3413"
     fill="#3f3d56"
     height="224.72329"
     width="11.28993"
     y="108.6873"
     x="655.15167" />
  <rect
     id="rect3415"
     fill="url(#a651e133-d6aa-48aa-8079-6c4a5ec96e1e)"
     height="4.21201"
     width="113"
     y="386.85189"
     x="73.85306" />
  <rect
     id="rect3417"
     fill="url(#a032404e-d89a-4ea1-8305-7771176aed47)"
     height="4.21201"
     width="73"
     y="369.85189"
     x="197.85306" />
  <rect
     id="rect3419"
     fill="url(#aeaa6584-1812-46c5-9b7b-bc13fe2ee991)"
     height="4.21201"
     width="41"
     y="386.85189"
     x="258.85306" />
  <rect
     id="rect3421"
     fill="url(#e08ee7f8-fcb1-4000-9982-156125487aa2)"
     height="4.21201"
     width="17"
     y="434.85189"
     x="300.85306" />
  <rect
     id="rect3423"
     fill="url(#a085d69d-bfe1-44e0-800d-f8cfb8aa4567)"
     height="4.21201"
     width="24"
     y="443.85189"
     x="65.85306" />
  <rect
     id="rect3425"
     fill="url(#e80a456d-cc57-40fb-9b48-77bc4382318c)"
     height="4.21201"
     width="31"
     y="454.85189"
     x="85.85306" />
  <rect
     id="rect3427"
     fill="url(#a5b8f766-2468-40b7-b379-d76e54680466)"
     height="4.21201"
     width="26"
     y="444.85189"
     x="279.85306" />
  <rect
     id="rect3429"
     fill="url(#a5f4d687-b38a-42cd-97eb-99e9c010f90d)"
     height="4.21201"
     width="92"
     y="416.85189"
     x="390.85306" />
  <rect
     id="rect3431"
     fill="url(#a3735857-2d3f-4d4d-93dd-f8d1d4e4b48d)"
     height="4.21201"
     width="31"
     y="393.85189"
     x="492.85306" />
  <rect
     id="rect3433"
     fill="url(#fc59ee25-cba3-4486-b10b-5ad5b0f11fd8)"
     height="4.21201"
     width="31"
     y="434.85189"
     x="613.85306" />
  <rect
     id="rect3435"
     fill="url(#fc5113f6-7e86-4537-8511-a82c4c48aa38)"
     height="4.21201"
     width="54"
     y="450.85189"
     x="581.85306" />
  <rect
     id="rect3437"
     fill="#b0bec5"
     height="2.43301"
     width="110.70202"
     y="387.75651"
     x="75.42336" />
  <rect
     id="rect3439"
     fill="#b0bec5"
     height="2.43301"
     width="68.12432"
     y="370.72543"
     x="200.72345" />
  <rect
     id="rect3441"
     fill="#b0bec5"
     height="2.43301"
     width="34.06216"
     y="387.75651"
     x="262.76524" />
  <rect
     id="rect3443"
     fill="#b0bec5"
     height="2.43301"
     width="88.80492"
     y="418.16916"
     x="392.93136" />
  <rect
     id="rect3445"
     fill="#b0bec5"
     height="2.43301"
     width="26.76313"
     y="395.05555"
     x="495.11784" />
  <rect
     id="rect3447"
     fill="#b0bec5"
     height="2.43301"
     width="20.6806"
     y="444.93228"
     x="68.12432" />
  <rect
     id="rect3449"
     fill="#b0bec5"
     height="2.43301"
     width="25.54662"
     y="455.88084"
     x="88.80492" />
  <rect
     id="rect3451"
     fill="#b0bec5"
     height="2.43301"
     width="20.6806"
     y="444.93228"
     x="282.22933" />
  <rect
     id="rect3453"
     fill="#b0bec5"
     height="2.43301"
     width="13.38156"
     y="435.20024"
     x="302.90993" />
  <rect
     id="rect3455"
     fill="#b0bec5"
     height="2.43301"
     width="45.01071"
     y="451.01481"
     x="585.13927" />
  <rect
     id="rect3457"
     fill="#b0bec5"
     height="2.43301"
     width="24.33012"
     y="435.20024"
     x="616.76842" />
</svg>
