<?xml version="1.0" encoding="UTF-8" standalone="no"?>
<svg
   xmlns:dc="http://purl.org/dc/elements/1.1/"
   xmlns:cc="http://creativecommons.org/ns#"
   xmlns:rdf="http://www.w3.org/1999/02/22-rdf-syntax-ns#"
   xmlns:svg="http://www.w3.org/2000/svg"
   xmlns="http://www.w3.org/2000/svg"
   xmlns:xlink="http://www.w3.org/1999/xlink"
   xmlns:sodipodi="http://sodipodi.sourceforge.net/DTD/sodipodi-0.dtd"
   xmlns:inkscape="http://www.inkscape.org/namespaces/inkscape"
   inkscape:version="1.0beta2 (2b71d25, 2019-12-03)"
   sodipodi:docname="late.svg"
   version="1.1"
   viewBox="0 0 1037.94 772.29"
   height="772.29"
   width="1037.94"
   data-name="Layer 1"
   id="2b8e3008-3352-469a-8231-8c916447ef06">
  <metadata
     id="metadata4706">
    <rdf:RDF>
      <cc:Work
         rdf:about="">
        <dc:format>image/svg+xml</dc:format>
        <dc:type
           rdf:resource="http://purl.org/dc/dcmitype/StillImage" />
      </cc:Work>
    </rdf:RDF>
  </metadata>
  <sodipodi:namedview
     inkscape:current-layer="2b8e3008-3352-469a-8231-8c916447ef06"
     inkscape:window-maximized="1"
     inkscape:window-y="23"
     inkscape:window-x="0"
     inkscape:cy="386.14499"
     inkscape:cx="518.96997"
     inkscape:zoom="0.35219931"
     showgrid="false"
     id="namedview4704"
     inkscape:window-height="855"
     inkscape:window-width="1440"
     inkscape:pageshadow="2"
     inkscape:pageopacity="0"
     guidetolerance="10"
     gridtolerance="10"
     objecttolerance="10"
     borderopacity="1"
     inkscape:document-rotation="0"
     bordercolor="#666666"
     pagecolor="#ffffff" />
  <defs
     id="defs4555">
    <linearGradient
       gradientUnits="userSpaceOnUse"
       y2="22.41"
       x2="521.94"
       y1="746.41"
       x1="521.94"
       id="60672ce7-bfbc-4a60-a482-eb57e060a9c7">
      <stop
         id="stop4547"
         stop-opacity="0.25"
         stop-color="gray"
         offset="0" />
      <stop
         id="stop4549"
         stop-opacity="0.12"
         stop-color="gray"
         offset="0.54" />
      <stop
         id="stop4551"
         stop-opacity="0.1"
         stop-color="gray"
         offset="1" />
    </linearGradient>
    <linearGradient
       xlink:href="#60672ce7-bfbc-4a60-a482-eb57e060a9c7"
       y2="179.26"
       x2="748.44"
       y1="596.28"
       x1="748.44"
       id="b310ffb6-9937-4369-8bc9-4e3f67e27eb9" />
  </defs>
  <title
     id="title4557">time management</title>
  <path
     id="path4559"
     opacity="0.1"
     fill="#ff6347"
     transform="translate(-81.08 -63.86)"
     d="M185.48,141.19c-6.46,2.68-13.09,6.12-16.64,12.15-3.76,6.37-3.31,14.28-2.61,21.65,6.1,63.92,22.17,131.9-5.58,189.8-13.47,28.09-36,50.6-53.92,76.11s-31.45,57.36-23.13,87.37c10.16,36.67,48.08,57,73.64,85.22,16.73,18.45,28.46,40.87,44.07,60.28s37,36.51,61.92,37.65c35.84,1.65,65-29.3,100.14-36.47,36-7.34,72.25,11.34,101.44,33.7s55.74,49.45,89.75,63.41c37.56,15.43,79.9,13.07,119.44,22.34,36,8.45,69.14,26.42,104.88,36s77.63,9,105.32-15.47c36.09-32,33.25-89,56.3-131.33,21.41-39.33,63.32-62.81,91.53-97.58,50.76-62.58,49.1-158.23,6-226.29s-121.17-109.27-201-120c-36-4.83-73.07-4.17-107.68-15.16C636.71,195.17,581.58,89.83,487,67.91,426.88,54,368.41,78.09,317.2,107.74,272.75,133.48,231.74,122,185.48,141.19Z" />
  <path
     id="path4561"
     stroke-width="2"
     stroke-miterlimit="10"
     stroke="#535461"
     fill="none"
     transform="translate(-81.08 -63.86)"
     d="M275.76,347.69S241.63,379.9,205,380.86a71.09,71.09,0,0,0-42.37,15.07A119.57,119.57,0,0,0,146.79,411" />
  <path
     id="path4563"
     fill="#ff6347"
     transform="translate(-81.08 -63.86)"
     d="M123.69,411.79c4.92-2.5,23.7-.84,23.7-.84s-9.74,16.15-14.66,18.65a10,10,0,1,1-9-17.81Z" />
  <path
     id="path4565"
     fill="#ff6347"
     transform="translate(-81.08 -63.86)"
     d="M143.46,383.24c5.49.58,20.35,12.18,20.35,12.18s-17,8.26-22.44,7.69a10,10,0,0,1,2.09-19.87Z" />
  <path
     id="path4567"
     fill="#ff6347"
     transform="translate(-81.08 -63.86)"
     d="M190.34,360.23c4.44,3.27,11.42,20.79,11.42,20.79s-18.81-1.43-23.25-4.69a10,10,0,0,1,11.83-16.1Z" />
  <path
     id="path4569"
     fill="#ff6347"
     transform="translate(-81.08 -63.86)"
     d="M229.73,350.82c4.93,2.47,14.77,18.56,14.77,18.56s-18.78,1.77-23.71-.7a10,10,0,1,1,8.94-17.86Z" />
  <path
     id="path4571"
     fill="#ff6347"
     transform="translate(-81.08 -63.86)"
     d="M174.26,413.63c1.64-5.27-3.16-23.51-3.16-23.51s-14.28,12.32-15.92,17.59a10,10,0,1,0,19.08,5.92Z" />
  <path
     id="path4573"
     fill="#ff6347"
     transform="translate(-81.08 -63.86)"
     d="M220.19,402c0-5.52-10.05-21.48-10.05-21.48s-9.94,16-9.93,21.54a10,10,0,0,0,20-.06Z" />
  <path
     id="path4575"
     fill="#ff6347"
     transform="translate(-81.08 -63.86)"
     d="M263.28,384.64c.92-5.44-6.28-22.87-6.28-22.87s-12.51,14.12-13.42,19.56a10,10,0,0,0,19.7,3.32Z" />
  <path
     id="path4577"
     stroke-width="2"
     stroke-miterlimit="10"
     stroke="#535461"
     fill="none"
     transform="translate(-81.08 -63.86)"
     d="M320.11,262.39S279,239.81,266.78,205.22a71.09,71.09,0,0,0-27.37-35.69,119.57,119.57,0,0,0-19.24-10.4" />
  <path
     id="path4579"
     fill="#ff6347"
     transform="translate(-81.08 -63.86)"
     d="M212.37,137.38c3.89,3.91,8.08,22.3,8.08,22.3s-18.36-4.3-22.25-8.22a10,10,0,0,1,14.17-14.08Z" />
  <path
     id="path4581"
     fill="#ff6347"
     transform="translate(-81.08 -63.86)"
     d="M245.62,147.41c1.14,5.4-5.33,23.11-5.33,23.11s-13.07-13.59-14.21-19a10,10,0,1,1,19.55-4.12Z" />
  <path
     id="path4583"
     fill="#ff6347"
     transform="translate(-81.08 -63.86)"
     d="M281.92,185c-1.74,5.23-16.27,17.26-16.27,17.26s-4.42-18.33-2.68-23.57a10,10,0,0,1,19,6.31Z" />
  <path
     id="path4585"
     fill="#ff6347"
     transform="translate(-81.08 -63.86)"
     d="M303,219.55c-.83,5.45-13.12,19.76-13.12,19.76s-7.46-17.32-6.63-22.77a10,10,0,1,1,19.75,3Z" />
  <path
     id="path4587"
     fill="#ff6347"
     transform="translate(-81.08 -63.86)"
     d="M226.16,186.07c5.52-.06,21.4-10.24,21.4-10.24s-16.11-9.8-21.63-9.74a10,10,0,1,0,.23,20Z" />
  <path
     id="path4589"
     fill="#ff6347"
     transform="translate(-81.08 -63.86)"
     d="M251.32,226.21c5.24-1.71,17.35-16.17,17.35-16.17s-18.31-4.53-23.55-2.82a10,10,0,1,0,6.2,19Z" />
  <path
     id="path4591"
     fill="#ff6347"
     transform="translate(-81.08 -63.86)"
     d="M281.12,261.87c5.46-.8,19.84-13,19.84-13s-17.28-7.56-22.73-6.76a10,10,0,1,0,2.9,19.77Z" />
  <circle
     id="circle4593"
     fill="url(#60672ce7-bfbc-4a60-a482-eb57e060a9c7)"
     r="362"
     cy="384.41"
     cx="521.94" />
  <circle
     id="circle4595"
     fill="#ff6347"
     r="356"
     cy="384.41"
     cx="521.94" />
  <circle
     id="circle4597"
     fill="#dde1ec"
     r="283"
     cy="384.41"
     cx="521.94" />
  <rect
     id="rect4599"
     opacity="0.3"
     fill="#535461"
     height="250"
     width="16"
     y="151.41"
     x="513.94" />
  <g
     id="g4607"
     opacity="0.1">
    <rect
       id="rect4601"
       height="20"
       width="226"
       y="378.41"
       x="538.94" />
    <rect
       id="rect4603"
       transform="translate(-164.99 624.63) rotate(-62.36)"
       height="160.52"
       width="20"
       y="333.31"
       x="516.95" />
    <circle
       id="circle4605"
       r="30"
       cy="388.41"
       cx="521.94" />
  </g>
  <rect
     id="rect4609"
     fill="#535461"
     height="20"
     width="226"
     y="374.41"
     x="538.94" />
  <rect
     id="rect4611"
     fill="#535461"
     transform="translate(169.1 -261.59) rotate(27.64)"
     height="20"
     width="160.52"
     y="399.57"
     x="446.69" />
  <circle
     id="circle4613"
     fill="#535461"
     r="30"
     cy="384.41"
     cx="521.94" />
  <g
     id="g4617"
     opacity="0.1">
    <path
       id="path4615"
       transform="translate(-81.08 -63.86)"
       d="M342,482.27c0-156.3,126.7-283,283-283A282.56,282.56,0,0,1,851.16,312.11C803,224.59,710,165.27,603,165.27c-156.3,0-283,126.7-283,283a281.74,281.74,0,0,0,56.87,170.16A281.71,281.71,0,0,1,342,482.27Z" />
  </g>
  <path
     id="path4619"
     fill="url(#b310ffb6-9937-4369-8bc9-4e3f67e27eb9)"
     transform="translate(-81.08 -63.86)"
     d="M864.5,240.09c-3.36-3.23-31.64,18-31.64,18s-10.07,1.84-7.67,8.75-10.55,45.61-10.55,45.61l-5.27-7.37c.51-8.65-1.87-14.78-4.19-18.6-.19-.31-.38-.61-.57-.89l.92-.32c-.35-4.72-7.9-11.91-11.91-15.43,0-.51,0-1,0-1.52.25-5.64,2.51-11.59,0-16.7-2.84-5.83-11.15-8.76-11.85-15.16-.42-3.82,2.16-7.27,3.3-10.95,2.72-8.8-2.93-17.78-8.33-25.36a35.47,35.47,0,0,0-6.61-7.62,32.08,32.08,0,0,0-7.94-4.24c-7.91-3.2-16-4.81-24.16-7-7.83-2.08-15.05-3.07-23-.46a11.31,11.31,0,0,0-5,2.87c-1.89,2.12-2.14,5.14-3.38,7.67-2,4.07-6.31,6.5-10.12,9.11s-7.63,6.19-7.65,10.69c0,6.39,7.3,10.41,9.74,16.36,2.28,5.54,0,11.71-1.27,17.55a11.79,11.79,0,0,0-.15,5.79,12.44,12.44,0,0,0,2.24,3.9c1.51,2,3.13,3.86,4.74,5.76l-.74.29c-13.42-1.38-22.05,15.66-22.05,15.66.62.13,1.21.28,1.79.45l-.57.74a72.75,72.75,0,0,0-9.85,17.23l-11,14.74s-2.4-36.86,3.36-45.15-5.27-13.36-5.27-13.36-24-26.72-27.33-24.42,8.15,31.33,18.22,35.94c0,0,1,9.21-1,15.2-1.21,3.79-7.67,43.77-7.67,43.77s-5.75,33.63,20.62,17c17.13-10.78,28.2-29.34,33.84-41q.59-1.23,1.11-2.35a28.15,28.15,0,0,1,.53,3.75l1,38.53a58.48,58.48,0,0,1-6.06,27.52L681.36,388.9l1.31.4-.79,1.14c-7.74,11.39-20.9,37,6.19,50.05l36,4.61-1.92,9.21s-14.86,28.1-19.18,47.45a142.19,142.19,0,0,1-12.47,34.09l1.11.59c-.23.26-.47.53-.7.81a17.38,17.38,0,0,0-4.16,8.72l-4.88,6.92s-1.92,28.56,1.92,35.48c2.1,3.78,9.07,6.18,15,7.58,8.8,2.09,15.9-7,11.23-14.49l-.06-.1h-.09c-1-4.65-4.06-19.08-3.06-24.56.28-1.56.54-3.11.67-4.69a16.58,16.58,0,0,1,1.86-5.93c.16-.31.33-.61.5-.91l.52.22c1.61.69,3.2,1.34,4.71,1.91-2.34,2.13-4,6.54-2,15.61,0,0,.19,22.69,1.92,26.26s21.09,8.29,24.45,4.61-2.16-16.36-2.16-16.36l-.17.12c-1.11-7.35-2.48-20.51.89-25.69,1.36-2.09,2.68-4.25,3.86-6.27l.73-1.25h0c6.26,3.12,12.88,5.47,16.5,3.84,0,0,15.82-36.86,14.86-41.46s24.45-56.67,24.45-56.67,21.57-24-4.79-40.54c-8.37-5.27-14.47-8.81-18.9-11.2L771,379a70.92,70.92,0,0,1,1-30.66L776,333.08h0l.33-1.3s10.07-20.73,9.59-30.41a7,7,0,0,1,.25-2.23c.11.46.23.94.36,1.44a185.88,185.88,0,0,0,10.42,29.36c7.65,17.26,19,15.89,25.22,13.44a8.61,8.61,0,0,0,5.31-6.22c2.24-10.74,8.39-40.83,8.78-49.14a139.79,139.79,0,0,1,2.4-19.35C854.44,259.44,867.86,243.32,864.5,240.09Z" />
  <path
     id="path4621"
     fill="#f8bdc5"
     transform="translate(-81.08 -63.86)"
     d="M747.11,535.31s-2.11,4.23-5,9.31c-1.13,2-2.39,4.15-3.68,6.22-4.57,7.31,0,30.6,0,30.6l-10,1.37-10-5-1.83-16.9V548.55L728,535.8l5-5.52Z" />
  <g
     id="g4625"
     opacity="0.1">
    <path
       id="path4623"
       transform="translate(-81.08 -63.86)"
       d="M747.11,535.31s-2.11,4.23-5,9.31a123.85,123.85,0,0,1-12.78-7.86l-.88-.62-.47-.34,5-5.52Z" />
  </g>
  <path
     id="path4627"
     fill="#5e52ad"
     transform="translate(-81.08 -63.86)"
     d="M796,449.89s-24.21,51.61-23.29,56.18-14.16,41.11-14.16,41.11c-3.44,1.62-9.76-.71-15.72-3.8a123.23,123.23,0,0,1-13-8l-.88-.62-.53-.38,39.74-110.08L733,398.51l-2.6-1.91L714.68,385l48,8.68s1.67-.21,10.5,4.73c4.24,2.37,10.13,5.92,18.27,11.26C816.54,426.14,796,449.89,796,449.89Z" />
  <g
     id="g4631"
     opacity="0.03">
    <path
       id="path4629"
       transform="translate(-81.08 -63.86)"
       d="M796,449.89s-24.21,51.61-23.29,56.18-14.16,41.11-14.16,41.11c-3.44,1.62-9.76-.71-15.72-3.8a123.23,123.23,0,0,1-13-8l-.88-.62-.53-.38,39.74-110.08L733,398.51l-2.6-1.91L714.68,385l48,8.68s1.67-.21,10.5,4.73c4.24,2.37,10.13,5.92,18.27,11.26C816.54,426.14,796,449.89,796,449.89Z" />
  </g>
  <path
     id="path4633"
     fill="#5d3e53"
     transform="translate(-81.08 -63.86)"
     d="M722.45,544.44s-11.88-1.83-7.76,17.36c0,0,.18,22.5,1.83,26s20.1,8.22,23.29,4.57-2.06-16.21-2.06-16.21-13.47,9.82-17.13-.69S722.45,544.44,722.45,544.44Z" />
  <path
     id="path4635"
     fill="#f8bdc5"
     transform="translate(-81.08 -63.86)"
     d="M714.22,540.79a14.4,14.4,0,0,0-3.11,4.32,16.92,16.92,0,0,0-1.77,5.88c-.12,1.56-.37,3.11-.63,4.65-1.14,6.51,3.23,25.8,3.23,25.8l-17.36,2.74-6.39-6.85-1.37-15.07a54.61,54.61,0,0,0,2.74-16c0-3.93,2-7.44,4-10a27.5,27.5,0,0,1,4.63-4.59S717.88,537.59,714.22,540.79Z" />
  <g
     id="g4639"
     opacity="0.1">
    <path
       id="path4637"
       transform="translate(-81.08 -63.86)"
       d="M714.22,540.79a14.4,14.4,0,0,0-3.11,4.32c-7.11-3.21-14.58-7.26-17.3-8.76l-.21-.11a27.5,27.5,0,0,1,4.63-4.59S717.88,537.59,714.22,540.79Z" />
  </g>
  <path
     id="path4641"
     fill="#5e52ad"
     transform="translate(-81.08 -63.86)"
     d="M770.41,436.19S759,457.66,751.68,475.47c-4.8,11.7-14.72,39.56-21,57.3l-.92,2.62c-2.76,7.85-4.6,13.16-4.6,13.16a11.89,11.89,0,0,1-3.59-.53c-1.08-.29-2.29-.68-3.58-1.16l-1.45-.55c-1.44-.56-3-1.21-4.49-1.89-7.26-3.24-15-7.46-17.81-9l-1.06-.59A144.48,144.48,0,0,0,705.09,501c4.11-19.18,18.27-47,18.27-47l1.83-9.14-34.26-4.57c-25.81-12.9-13.27-38.33-5.9-49.62A66.66,66.66,0,0,1,689.1,385L716.51,391s4.32,1.38,13.92,5.63l4.41,2c5.38,2.47,12,5.65,20,9.73C781.82,422,770.41,436.19,770.41,436.19Z" />
  <path
     id="path4643"
     fill="#5d3e53"
     transform="translate(-81.08 -63.86)"
     d="M711.77,580.07a9.7,9.7,0,0,1-10.7,14.36c-5.61-1.39-12.26-3.77-14.26-7.52-3.65-6.85-1.83-35.17-1.83-35.17l4.8-7.08s-2.51,31.29,3.43,34,18.5,1.27,18.5,1.27Z" />
  <path
     id="path4645"
     fill="#85555c"
     transform="translate(-81.08 -63.86)"
     d="M716.63,182.86a10.68,10.68,0,0,0-4.8,2.85c-1.8,2.1-2,5.1-3.22,7.61-1.9,4-6,6.45-9.64,9s-7.27,6.14-7.29,10.6c0,6.34,7,10.32,9.28,16.21,2.17,5.5,0,11.61-1.21,17.4a12.15,12.15,0,0,0-.14,5.74,12.47,12.47,0,0,0,2.14,3.87c4.41,6,9.89,11.32,12.84,18.15,2.24,5.19,2.86,10.92,3.45,16.55.85,8.1,1.7,16.35.16,24.35a2.46,2.46,0,0,0,0,1.47,2.28,2.28,0,0,0,1.17,1,24,24,0,0,0,32.49-12c2-4.53,2.77-10,6.73-12.94a3.37,3.37,0,0,1,1.61-.73,4.71,4.71,0,0,1,2.6.87c5.14,2.78,11.37,2.86,17.1,1.72,3.46-.69,7-1.92,9.29-4.62,4.51-5.36,2-13.37,2.3-20.36.24-5.59,2.39-11.49,0-16.55-2.7-5.78-10.63-8.68-11.29-15-.4-3.78,2.06-7.21,3.15-10.85,2.59-8.73-2.79-17.63-7.93-25.14a34.81,34.81,0,0,0-6.29-7.55,30.19,30.19,0,0,0-7.56-4.2c-7.53-3.17-15.21-4.77-23-6.93C731.11,181.25,724.24,180.26,716.63,182.86Z" />
  <path
     id="path4647"
     fill="#f8bdc5"
     transform="translate(-81.08 -63.86)"
     d="M754.88,313.32H728.38V270.38a80,80,0,0,0,1.38-12.5c0-1.41,0-2.85,0-4.3-.25-5.12-1.31-10.23-4.09-13.35-7.31-8.22,23.75-6.85,23.75-6.85a77.31,77.31,0,0,0,3.7,11.06,67.25,67.25,0,0,0,8.9,15.67,36.26,36.26,0,0,0,12.07,10.27C792.33,279.52,754.88,313.32,754.88,313.32Z" />
  <g
     id="g4651"
     opacity="0.1">
    <path
       id="path4649"
       transform="translate(-81.08 -63.86)"
       d="M753.09,244.44a24.25,24.25,0,0,1-23.36,9.14c-.25-5.12-1.31-10.23-4.09-13.35-7.31-8.22,23.75-6.85,23.75-6.85A77.31,77.31,0,0,0,753.09,244.44Z" />
  </g>
  <circle
     id="circle4653"
     fill="#f8bdc5"
     r="24.21"
     cy="164.51"
     cx="652.78" />
  <path
     id="path4655"
     fill="#f8bdc5"
     transform="translate(-81.08 -63.86)"
     d="M834.35,269.93a143.91,143.91,0,0,0-2.28,19.18c-.37,8.23-6.23,38.07-8.37,48.72a8.45,8.45,0,0,1-5.06,6.17c-5.94,2.43-16.74,3.79-24-13.32a189.36,189.36,0,0,1-9.93-29.1,78.65,78.65,0,0,1-2-10.18l16-8.68a19.71,19.71,0,0,1,3.78,4.85c2.21,3.79,4.48,9.87,4,18.44l5,7.31s12.33-38.37,10-45.22,7.31-8.68,7.31-8.68,26.95-21,30.15-17.81S849.42,260.79,834.35,269.93Z" />
  <path
     id="path4657"
     fill="#f8bdc5"
     transform="translate(-81.08 -63.86)"
     d="M703.26,288.2a108,108,0,0,1-4.3,10.5c-5.38,11.57-15.92,30-32.24,40.66-25.12,16.44-19.64-16.9-19.64-16.9s6.15-39.64,7.31-43.39c1.83-5.94.91-15.07.91-15.07-9.59-4.57-20.55-33.34-17.36-35.63s26,24.21,26,24.21,10.51,5,5,13.25-3.2,44.76-3.2,44.76L676.31,296a72.9,72.9,0,0,1,9.39-17.08c2-2.73,3.4-4.38,3.4-4.38Z" />
  <g
     id="g4661"
     opacity="0.1">
    <path
       id="path4659"
       transform="translate(-81.08 -63.86)"
       d="M802.5,287.57c-3.36,1.24-16.37,6.49-17.81,14a78.65,78.65,0,0,1-2-10.18l16-8.68A19.71,19.71,0,0,1,802.5,287.57Z" />
  </g>
  <g
     id="g4665"
     opacity="0.1">
    <path
       id="path4663"
       transform="translate(-81.08 -63.86)"
       d="M703.26,288.2a108,108,0,0,1-4.3,10.5c-.62-4.52-3.17-16.08-13.26-19.81,2-2.73,3.4-4.38,3.4-4.38Z" />
  </g>
  <g
     id="g4669"
     opacity="0.1">
    <path
       id="path4667"
       transform="translate(-81.08 -63.86)"
       d="M754.88,313.32H728.38V270.38a80,80,0,0,0,1.38-12.5c5.45,5.26,4.1,13.41,4.1,13.41l14.16,32L754.88,275l-2.28-3.65,9.4-11.18a36.26,36.26,0,0,0,12.07,10.27C792.33,279.52,754.88,313.32,754.88,313.32Z" />
  </g>
  <g
     id="g4673"
     opacity="0.1">
    <path
       id="path4671"
       transform="translate(-81.08 -63.86)"
       d="M773.6,401s-20.76-1.65-38.77-2.43l-1.81-.08c-2.56-.1-5-.18-7.39-.24-17.48-.42-37.25-6.53-40.61-7.6A66.66,66.66,0,0,1,689.1,385L716.51,391s4.32,1.38,13.92,5.63L714.68,385l48,8.68s1.67-.21,10.5,4.73Z" />
  </g>
  <path
     id="path4675"
     fill="#ed677b"
     transform="translate(-81.08 -63.86)"
     d="M754.88,276.78l-2.28-3.65L762.74,261s20.91,10.25,26.39,8c0,0,13.25,11,13.7,17.36,0,0-19.18,6.39-18.73,16S775,332.5,775,332.5l-4,16.42a73.09,73.09,0,0,0-1,30.4l3.65,20.33s-28.78-2.28-48-2.74-41.11-7.76-41.11-7.76l11.21-23.59a60,60,0,0,0,5.78-27.28l-1-38.19s-.91-19.18-16-22.38c0,0,8.22-16.9,21-15.53,0,0,18.62-7.77,24.15-2.52s4.17,13.48,4.17,13.48l14.16,32Z" />
  <g
     id="g4679"
     opacity="0.1">
    <path
       id="path4677"
       transform="translate(-81.08 -63.86)"
       d="M716.39,223.38c3.67,0,6.55-3.89,10.22-3.69,1.9.1,3.53,1.31,5.1,2.4a62.25,62.25,0,0,0,19.51,9c2.71.72,5.58,1.26,8.3.6s5.27-2.8,5.58-5.59a9.53,9.53,0,0,0-.48-3.63,44.87,44.87,0,0,0-19.54-25.79c-3.8-2.33-8.44-4.11-12.65-2.65-3.8,1.31-6.25,4.87-9,7.8a34.2,34.2,0,0,1-7,5.68c-2,1.21-5,2-6.15,4.22C708.11,215.87,711.52,223.34,716.39,223.38Z" />
  </g>
  <path
     id="path4681"
     fill="#85555c"
     transform="translate(-81.08 -63.86)"
     d="M716.39,222.47c3.67,0,6.55-3.89,10.22-3.69,1.9.1,3.53,1.31,5.1,2.4a62.25,62.25,0,0,0,19.51,9c2.71.72,5.58,1.26,8.3.6s5.27-2.8,5.58-5.59a9.53,9.53,0,0,0-.48-3.63,44.87,44.87,0,0,0-19.54-25.79c-3.8-2.33-8.44-4.11-12.65-2.65-3.8,1.31-6.25,4.87-9,7.8a34.2,34.2,0,0,1-7,5.68c-2,1.21-5,2-6.15,4.22C708.11,215,711.52,222.42,716.39,222.47Z" />
  <path
     id="path4683"
     opacity="0.05"
     transform="translate(-81.08 -63.86)"
     d="M705.32,326.79s22.38,8.22,37,1.83l7.31.46s12.15,8.52,25,4.71" />
  <path
     id="path4685"
     opacity="0.05"
     transform="translate(-81.08 -63.86)"
     d="M811.29,313.09s-3.65,8.68-1.83,11.42" />
  <path
     id="path4687"
     opacity="0.05"
     transform="translate(-81.08 -63.86)"
     d="M665.58,310.35s1.83,8.68,0,11.42" />
</svg>
